<svg id="e592e1ae-4f2d-4f93-9a3c-90971cf7d97d" data-name="aa4da29e-57f5-4517-a64f-011e4a99e5d7" xmlns="http://www.w3.org/2000/svg" viewBox="0 0 38.34 38"><defs><style>.a416d02e-d906-49d4-9fd8-2e692ab1223f{fill:#241f21;}.a272b723-71b6-4e95-8b7b-16421cc04f7f{fill:#1e787c;}</style></defs><path class="a416d02e-d906-49d4-9fd8-2e692ab1223f" d="M19.19,6.7A12.32,12.32,0,1,0,31.51,19v0A12.34,12.34,0,0,0,19.19,6.7Zm0,26.08A13.77,13.77,0,1,1,33,19,13.78,13.78,0,0,1,19.19,32.78Z"/><path class="a416d02e-d906-49d4-9fd8-2e692ab1223f" d="M32.24,18.26H6.13v1.48H32.24Z"/><path class="a416d02e-d906-49d4-9fd8-2e692ab1223f" d="M19.19,13.52c-6.29,0-8.53-1.39-10-2.32L9,11.05l.79-1.27.24.15c1.33.85,3.35,2.11,9.22,2.11,5.52,0,7.4-1.08,8.88-2,.18-.12.39-.21.57-.33l.73,1.3-.55.3C27.16,12.31,25.11,13.52,19.19,13.52Z"/><path class="a416d02e-d906-49d4-9fd8-2e692ab1223f" d="M28.76,28l-.27-.18c-1.39-.88-3.53-2.2-9.36-2.2-5.53,0-7.47,1.11-9,2-.21.12-.39.21-.57.33l-.73-1.3.55-.3c1.63-.94,3.83-2.23,9.76-2.23,6.25,0,8.67,1.54,10.15,2.44l.27.15Z"/><path class="a416d02e-d906-49d4-9fd8-2e692ab1223f" d="M19.31,6.7c-2.81,0-4.78,6.49-4.78,12.32s2,12.31,4.78,12.31S24.08,24.84,24.08,19,22.12,6.7,19.31,6.7Zm0,26.08c-3.51,0-6.26-6-6.26-13.76S15.8,5.25,19.31,5.25s6.25,6,6.25,13.77S22.81,32.78,19.31,32.78Z"/><path class="a272b723-71b6-4e95-8b7b-16421cc04f7f" d="M31.75,0V1.48h5.11v5.1h1.48V0Z"/><path class="a272b723-71b6-4e95-8b7b-16421cc04f7f" d="M0,31.42V38H6.59V36.52H1.48v-5.1Z"/></svg>