<svg width="39" height="38" viewBox="0 0 39 38" fill="none" xmlns="http://www.w3.org/2000/svg">
<path d="M19.1853 6.70071C12.3874 6.70071 6.85843 12.2241 6.85843 19.0152C6.85843 25.8062 12.3874 31.3296 19.1853 31.3296C25.9832 31.3296 31.512 25.8062 31.512 19.0152C31.512 12.2241 25.9832 6.70071 19.1853 6.70071ZM19.1853 32.7784C11.5716 32.7784 5.4082 26.591 5.4082 19.0152C5.4082 11.4394 11.6019 5.25195 19.1853 5.25195C26.7687 5.25195 32.9623 11.4394 32.9623 19.0152C32.9623 26.591 26.7989 32.7784 19.1853 32.7784Z" fill="#241F21"/>
<path d="M32.2367 18.2605H6.13281V19.7394H32.2367V18.2605Z" fill="#241F21"/>
<path d="M19.1851 13.5218C12.9008 13.5218 10.665 12.1334 9.18459 11.1978L8.94287 11.0469L9.72843 9.77921L9.97015 9.93012C11.2995 10.7752 13.3238 12.0429 19.1851 12.0429C24.714 12.0429 26.5872 10.9563 28.0676 10.081C28.2489 9.9603 28.4603 9.86975 28.6416 9.74902L29.3668 11.0469C29.1855 11.1374 29.0042 11.2581 28.8229 11.3487C27.1612 12.3145 25.1068 13.5218 19.1851 13.5218Z" fill="#241F21"/>
<path d="M28.7632 28.0396L28.4912 27.8585C27.1014 26.9832 24.9563 25.6552 19.1252 25.6552C13.5963 25.6552 11.6627 26.772 10.0916 27.6774C9.88016 27.7982 9.69891 27.8887 9.51763 28.0094L8.79248 26.7116C8.97376 26.6211 9.15505 26.5003 9.33633 26.4098C10.9678 25.4741 13.1734 24.1763 19.0951 24.1763C25.3491 24.1763 27.7661 25.7156 29.2465 26.6211L29.5185 26.772L28.7632 28.0396Z" fill="#241F21"/>
<path d="M19.3063 6.70071C16.4965 6.70071 14.5326 13.19 14.5326 19.0152C14.5326 24.8404 16.4965 31.3296 19.3063 31.3296C22.1161 31.3296 24.0799 24.8404 24.0799 19.0152C24.0799 13.19 22.1161 6.70071 19.3063 6.70071ZM19.3063 32.7784C15.8016 32.7784 13.0522 26.7419 13.0522 19.0152C13.0522 11.2885 15.8016 5.25195 19.3063 5.25195C22.811 5.25195 25.5603 11.2885 25.5603 19.0152C25.5603 26.7419 22.811 32.7784 19.3063 32.7784Z" fill="#241F21"/>
<path d="M31.7529 0V1.47894H36.8589V6.57979H38.3393V0H31.7529Z" fill="#F78F38"/>
<path d="M0 31.4202V38H6.58634V36.521H1.4804V31.4202H0Z" fill="#F78F38"/>
</svg>
