<svg width="132" height="38" viewBox="0 0 132 38" fill="none" xmlns="http://www.w3.org/2000/svg">
<path d="M63.1443 11.0469V27.768H60.8481L52.3281 15.5139H52.177V27.768H49.6392V11.0469H51.9957L60.4856 23.3312H60.6668V11.0469H63.1443Z" fill="#241F21"/>
<path d="M70.8195 26.078C71.4842 26.078 72.0885 25.9573 72.5417 25.6856C73.0251 25.414 73.3876 25.082 73.6596 24.6292C73.9013 24.2067 74.0523 23.7238 74.0523 23.2408V21.611C73.9617 21.7015 73.8106 21.7921 73.5387 21.8524C73.297 21.9128 72.9948 22.0034 72.6927 22.0335C72.3906 22.0939 72.0583 22.1241 71.7561 22.1844C71.454 22.2146 71.2123 22.2448 71.0008 22.275C70.5174 22.3354 70.0944 22.4259 69.7017 22.5768C69.3089 22.7277 69.0068 22.9088 68.7651 23.1805C68.5233 23.4521 68.4025 23.7841 68.4025 24.2369C68.4025 24.8405 68.614 25.2932 69.0672 25.5951C69.5506 25.9271 70.1246 26.078 70.8195 26.078ZM70.2757 28.0399C69.4902 28.0399 68.7651 27.8889 68.1306 27.5871C67.4961 27.2853 66.9825 26.8627 66.6199 26.2893C66.2574 25.7158 66.0459 25.0216 66.0459 24.2067C66.0459 23.5125 66.197 22.9088 66.4689 22.4561C66.7408 22.0034 67.1034 21.6412 67.5868 21.3695C68.04 21.0979 68.5536 20.8866 69.1276 20.7659C69.7017 20.615 70.2757 20.5244 70.8799 20.464C71.6353 20.3735 72.2396 20.3131 72.723 20.2528C73.2064 20.1924 73.5387 20.1019 73.7502 19.9811C73.9617 19.8604 74.0825 19.6491 74.0825 19.3473V19.2869C74.0825 18.5625 73.871 18.0193 73.4783 17.6269C73.0855 17.2345 72.4813 17.0534 71.6957 17.0534C70.88 17.0534 70.2153 17.2345 69.7621 17.5967C69.2787 17.9589 68.9766 18.3513 68.7953 18.804L66.4991 18.2909C66.771 17.5363 67.1638 16.9025 67.7076 16.4498C68.2212 15.9668 68.8255 15.6348 69.5204 15.4236C70.2153 15.2123 70.9404 15.0916 71.6957 15.0916C72.2093 15.0916 72.7229 15.1519 73.297 15.2726C73.871 15.3934 74.3847 15.6047 74.8681 15.9065C75.3515 16.2083 75.7744 16.661 76.0766 17.2345C76.3787 17.808 76.56 18.5625 76.56 19.468V27.7984H74.1732V26.078H74.0825C73.9315 26.3798 73.6898 26.7118 73.3574 27.0137C73.0553 27.3155 72.6323 27.5569 72.1489 27.7682C71.5749 27.9493 70.9706 28.0399 70.2757 28.0399Z" fill="#241F21"/>
<path d="M81.8459 11.0469V12.6164C81.8459 13.0691 81.7553 13.552 81.574 14.0651C81.3927 14.5782 81.151 15.0612 80.8489 15.5441C80.5468 16.027 80.1842 16.4194 79.7612 16.7514L78.5527 15.8761C78.8851 15.3932 79.157 14.9102 79.3987 14.3971C79.6404 13.884 79.7612 13.2804 79.7612 12.6465V11.0469H81.8459Z" fill="#241F21"/>
<path d="M87.194 26.078C87.8587 26.078 88.463 25.9573 88.9162 25.6856C89.3694 25.414 89.7621 25.082 90.034 24.6292C90.2757 24.2067 90.4268 23.7238 90.4268 23.2408V21.611C90.3362 21.7015 90.1851 21.7921 89.9132 21.8524C89.6715 21.9128 89.3694 22.0034 89.0672 22.0335C88.7651 22.0939 88.4328 22.1241 88.1306 22.1844C87.8285 22.2146 87.5868 22.2448 87.3753 22.275C86.8919 22.3354 86.4689 22.4259 86.0762 22.5768C85.6834 22.7277 85.3813 22.9088 85.1396 23.1805C84.8979 23.4521 84.777 23.7841 84.777 24.2369C84.777 24.8405 84.9885 25.2932 85.4417 25.5951C85.9251 25.9271 86.4991 26.078 87.194 26.078ZM86.6502 28.0399C85.8647 28.0399 85.1396 27.8889 84.5051 27.5871C83.8706 27.2853 83.357 26.8627 82.9945 26.2893C82.6319 25.7158 82.4204 25.0216 82.4204 24.2067C82.4204 23.5125 82.5715 22.9088 82.8434 22.4561C83.1153 22.0034 83.4779 21.6412 83.9613 21.3695C84.4144 21.0979 84.9281 20.8866 85.5021 20.7659C86.0761 20.615 86.6502 20.5244 87.2545 20.464C88.0098 20.3735 88.614 20.3131 89.0974 20.2528C89.5808 20.1924 89.9132 20.1019 90.1247 19.9811C90.3362 19.8604 90.457 19.6491 90.457 19.3473V19.2869C90.457 18.5625 90.2455 18.0193 89.8528 17.6269C89.46 17.2345 88.8557 17.0534 88.0702 17.0534C87.2544 17.0534 86.5898 17.2345 86.1366 17.5967C85.6532 17.9589 85.351 18.3513 85.1698 18.804L82.8736 18.2909C83.1455 17.5363 83.5383 16.9025 84.0821 16.4498C84.5957 15.9668 85.2 15.6348 85.8949 15.4236C86.5898 15.2123 87.3149 15.0916 88.0702 15.0916C88.5838 15.0916 89.0974 15.1519 89.6715 15.2726C90.2455 15.3934 90.7591 15.6047 91.2425 15.9065C91.7259 16.2083 92.1489 16.661 92.4511 17.2345C92.7532 17.808 92.9344 18.5625 92.9344 19.468V27.7984H90.5477V26.078H90.457C90.3059 26.3798 90.0642 26.7118 89.7319 27.0137C89.4298 27.3155 89.0068 27.5569 88.5234 27.7682C87.9493 27.9493 87.3451 28.0399 86.6502 28.0399Z" fill="#241F21"/>
<path d="M96.1074 27.7682V15.2425H98.464V17.2949H98.6151C98.887 16.6007 99.31 16.0574 99.884 15.665C100.488 15.2726 101.183 15.0916 102.029 15.0916C102.875 15.0916 103.57 15.2726 104.144 15.665C104.718 16.0574 105.141 16.6007 105.413 17.2949H105.534C105.836 16.6309 106.319 16.0876 106.954 15.6952C107.619 15.3028 108.374 15.0916 109.28 15.0916C110.428 15.0916 111.335 15.4537 112.06 16.1479C112.785 16.8723 113.147 17.9287 113.147 19.3775V27.7984H110.7V19.6189C110.7 18.7738 110.459 18.14 110.005 17.7778C109.552 17.3854 108.978 17.2043 108.344 17.2043C107.558 17.2043 106.924 17.4458 106.501 17.9287C106.047 18.4116 105.836 19.0455 105.836 19.8V27.7984H103.389V19.4378C103.389 18.7436 103.177 18.2004 102.754 17.808C102.331 17.3854 101.787 17.1741 101.093 17.1741C100.639 17.1741 100.216 17.2949 99.8236 17.5363C99.4308 17.7778 99.1287 18.1098 98.887 18.5324C98.6453 18.9549 98.5244 19.468 98.5244 20.0415V27.7682H96.1074Z" fill="#241F21"/>
<path d="M120.64 26.078C121.305 26.078 121.909 25.9573 122.362 25.6856C122.846 25.414 123.208 25.082 123.48 24.6292C123.722 24.2067 123.873 23.7238 123.873 23.2408V21.611C123.782 21.7015 123.631 21.7921 123.359 21.8524C123.118 21.9128 122.816 22.0034 122.514 22.0335C122.211 22.0939 121.879 22.1241 121.577 22.1844C121.275 22.2146 121.033 22.2448 120.822 22.275C120.338 22.3354 119.915 22.4259 119.522 22.5768C119.13 22.7277 118.828 22.9088 118.586 23.1805C118.344 23.4521 118.223 23.7841 118.223 24.2369C118.223 24.8405 118.435 25.2932 118.888 25.5951C119.371 25.9271 119.945 26.078 120.64 26.078ZM120.096 28.0399C119.311 28.0399 118.586 27.8889 117.951 27.5871C117.317 27.2853 116.803 26.8627 116.441 26.2893C116.078 25.7158 115.867 25.0216 115.867 24.2067C115.867 23.5125 116.018 22.9088 116.29 22.4561C116.562 22.0034 116.924 21.6412 117.408 21.3695C117.861 21.0979 118.374 20.8866 118.948 20.7659C119.522 20.615 120.096 20.5244 120.701 20.464C121.456 20.3735 122.06 20.3131 122.544 20.2528C123.027 20.1924 123.359 20.1019 123.571 19.9811C123.782 19.8604 123.903 19.6491 123.903 19.3473V19.2869C123.903 18.5625 123.692 18.0193 123.299 17.6269C122.906 17.2345 122.302 17.0534 121.517 17.0534C120.701 17.0534 120.036 17.2345 119.583 17.5967C119.099 17.9589 118.797 18.3513 118.616 18.804L116.32 18.2909C116.592 17.5363 116.985 16.9025 117.528 16.4498C118.042 15.9668 118.646 15.6348 119.341 15.4236C120.036 15.2123 120.761 15.0916 121.517 15.0916C122.03 15.0916 122.544 15.1519 123.118 15.2726C123.692 15.3934 124.205 15.6047 124.689 15.9065C125.172 16.2083 125.595 16.661 125.897 17.2345C126.2 17.808 126.381 18.5625 126.381 19.468V27.7984H123.994V26.078H123.903C123.752 26.3798 123.511 26.7118 123.178 27.0137C122.876 27.3155 122.453 27.5569 121.97 27.7682C121.365 27.9493 120.791 28.0399 120.096 28.0399Z" fill="#241F21"/>
<path d="M132 11.0469H129.553V27.768H132V11.0469Z" fill="#241F21"/>
<path d="M19.1853 6.70071C12.3874 6.70071 6.85843 12.2241 6.85843 19.0152C6.85843 25.8062 12.3874 31.3296 19.1853 31.3296C25.9832 31.3296 31.512 25.8062 31.512 19.0152C31.512 12.2241 25.9832 6.70071 19.1853 6.70071ZM19.1853 32.7784C11.5716 32.7784 5.4082 26.591 5.4082 19.0152C5.4082 11.4394 11.6019 5.25195 19.1853 5.25195C26.7687 5.25195 32.9623 11.4394 32.9623 19.0152C32.9623 26.591 26.7989 32.7784 19.1853 32.7784Z" fill="#241F21"/>
<path d="M32.2367 18.2605H6.13281V19.7394H32.2367V18.2605Z" fill="#241F21"/>
<path d="M19.1851 13.5218C12.9008 13.5218 10.665 12.1334 9.18459 11.1978L8.94287 11.0469L9.72843 9.77921L9.97015 9.93012C11.2995 10.7752 13.3238 12.0429 19.1851 12.0429C24.714 12.0429 26.5872 10.9563 28.0676 10.081C28.2489 9.9603 28.4603 9.86975 28.6416 9.74902L29.3668 11.0469C29.1855 11.1374 29.0042 11.2581 28.8229 11.3487C27.1612 12.3145 25.1068 13.5218 19.1851 13.5218Z" fill="#241F21"/>
<path d="M28.7632 28.0396L28.4912 27.8585C27.1014 26.9832 24.9563 25.6552 19.1252 25.6552C13.5963 25.6552 11.6627 26.772 10.0916 27.6774C9.88016 27.7982 9.69891 27.8887 9.51763 28.0094L8.79248 26.7116C8.97376 26.6211 9.15505 26.5003 9.33633 26.4098C10.9678 25.4741 13.1734 24.1763 19.0951 24.1763C25.3491 24.1763 27.7661 25.7156 29.2465 26.6211L29.5185 26.772L28.7632 28.0396Z" fill="#241F21"/>
<path d="M19.3063 6.70071C16.4965 6.70071 14.5326 13.19 14.5326 19.0152C14.5326 24.8404 16.4965 31.3296 19.3063 31.3296C22.1161 31.3296 24.0799 24.8404 24.0799 19.0152C24.0799 13.19 22.1161 6.70071 19.3063 6.70071ZM19.3063 32.7784C15.8016 32.7784 13.0522 26.7419 13.0522 19.0152C13.0522 11.2885 15.8016 5.25195 19.3063 5.25195C22.811 5.25195 25.5603 11.2885 25.5603 19.0152C25.5603 26.7419 22.811 32.7784 19.3063 32.7784Z" fill="#241F21"/>
<path d="M31.7529 0V1.47894H36.8589V6.57979H38.3393V0H31.7529Z" fill="#F78F38"/>
<path d="M0 31.4202V38H6.58634V36.521H1.4804V31.4202H0Z" fill="#F78F38"/>
</svg>
