<svg id="aa4da29e-57f5-4517-a64f-011e4a99e5d7" data-name="Layer 1" xmlns="http://www.w3.org/2000/svg" viewBox="0 0 132 38"><defs><style>.f018e7b0-a923-4659-a80b-8c607043f4b1{fill:#241f21;}.b96e193a-88a3-4e4a-a136-1c56f101b2ba{fill:#1e787c;}</style></defs><path class="f018e7b0-a923-4659-a80b-8c607043f4b1" d="M63.14,11.05V27.77H60.85L52.33,15.51h-.15V27.77H49.64V11.05H52l8.49,12.28h.18V11.05Z"/><path class="f018e7b0-a923-4659-a80b-8c607043f4b1" d="M70.82,26.08a3.39,3.39,0,0,0,1.72-.39,2.94,2.94,0,0,0,1.12-1.06,2.86,2.86,0,0,0,.39-1.39V21.61a1,1,0,0,1-.51.24,6,6,0,0,1-.85.18c-.3.06-.63.09-.93.15l-.76.09a6,6,0,0,0-1.3.31,2.27,2.27,0,0,0-.93.6,1.46,1.46,0,0,0-.37,1.06,1.52,1.52,0,0,0,.67,1.36A3,3,0,0,0,70.82,26.08Zm-.54,2a5,5,0,0,1-2.15-.45,3.55,3.55,0,0,1-1.51-1.3,3.84,3.84,0,0,1-.57-2.08,3.41,3.41,0,0,1,.42-1.75,2.87,2.87,0,0,1,1.12-1.09,4.9,4.9,0,0,1,1.54-.6,10.17,10.17,0,0,1,1.75-.31l1.84-.21a2.86,2.86,0,0,0,1-.27.67.67,0,0,0,.33-.63v-.06a2.23,2.23,0,0,0-.6-1.66,2.4,2.4,0,0,0-1.78-.58,3,3,0,0,0-1.94.55,2.76,2.76,0,0,0-1,1.2l-2.3-.51a4.12,4.12,0,0,1,1.21-1.84,4.53,4.53,0,0,1,1.81-1,7.52,7.52,0,0,1,2.18-.33,7.76,7.76,0,0,1,1.6.18,4.69,4.69,0,0,1,1.57.64,3.53,3.53,0,0,1,1.21,1.32,4.86,4.86,0,0,1,.48,2.24V27.8H74.17V26.08h-.09a3.25,3.25,0,0,1-.72.93,3.8,3.8,0,0,1-1.21.76A6.17,6.17,0,0,1,70.28,28Z"/><path class="f018e7b0-a923-4659-a80b-8c607043f4b1" d="M81.85,11.05v1.57a4.22,4.22,0,0,1-.28,1.45,7.4,7.4,0,0,1-.72,1.47,4.54,4.54,0,0,1-1.09,1.21l-1.21-.87a10.06,10.06,0,0,0,.85-1.48,4.18,4.18,0,0,0,.36-1.75v-1.6Z"/><path class="f018e7b0-a923-4659-a80b-8c607043f4b1" d="M87.19,26.08a3.43,3.43,0,0,0,1.73-.39A3.22,3.22,0,0,0,90,24.63a2.76,2.76,0,0,0,.4-1.39V21.61a1,1,0,0,1-.52.24,5.87,5.87,0,0,1-.84.18c-.3.06-.64.09-.94.15l-.75.09a5.9,5.9,0,0,0-1.3.31,2.24,2.24,0,0,0-.94.6,1.5,1.5,0,0,0-.36,1.06,1.53,1.53,0,0,0,.66,1.36A3,3,0,0,0,87.19,26.08Zm-.54,2a4.94,4.94,0,0,1-2.14-.45A3.57,3.57,0,0,1,83,26.29a3.84,3.84,0,0,1-.57-2.08,3.41,3.41,0,0,1,.42-1.75A3,3,0,0,1,84,21.37a5,5,0,0,1,1.54-.6,10.35,10.35,0,0,1,1.75-.31l1.85-.21a2.86,2.86,0,0,0,1-.27.66.66,0,0,0,.34-.63v-.06a2.2,2.2,0,0,0-.61-1.66,2.39,2.39,0,0,0-1.78-.58,3,3,0,0,0-1.93.55,2.71,2.71,0,0,0-1,1.2l-2.3-.51a4.3,4.3,0,0,1,1.21-1.84,4.6,4.6,0,0,1,1.81-1,7.52,7.52,0,0,1,2.18-.33,7.69,7.69,0,0,1,1.6.18,4.52,4.52,0,0,1,1.57.64,3.37,3.37,0,0,1,1.21,1.32,4.86,4.86,0,0,1,.48,2.24V27.8H90.55V26.08h-.09a3.3,3.3,0,0,1-.73.93,3.69,3.69,0,0,1-1.21.76A6.08,6.08,0,0,1,86.65,28Z"/><path class="f018e7b0-a923-4659-a80b-8c607043f4b1" d="M96.11,27.77V15.24h2.35v2h.16a3.49,3.49,0,0,1,1.26-1.63,3.84,3.84,0,0,1,2.15-.57,3.62,3.62,0,0,1,2.11.57,3.45,3.45,0,0,1,1.27,1.63h.12A3.7,3.7,0,0,1,107,15.7a4.4,4.4,0,0,1,2.33-.61,3.82,3.82,0,0,1,2.78,1.06,4.32,4.32,0,0,1,1.09,3.23V27.8H110.7V19.62a2.23,2.23,0,0,0-.7-1.84,2.47,2.47,0,0,0-1.66-.58,2.36,2.36,0,0,0-1.84.73,2.64,2.64,0,0,0-.66,1.87v8h-2.45V19.44a2.08,2.08,0,0,0-.64-1.63,2.23,2.23,0,0,0-1.66-.64,2.34,2.34,0,0,0-1.27.37,2.69,2.69,0,0,0-.93,1A3,3,0,0,0,98.52,20v7.73Z"/><path class="f018e7b0-a923-4659-a80b-8c607043f4b1" d="M120.64,26.08a3.37,3.37,0,0,0,1.72-.39,2.94,2.94,0,0,0,1.12-1.06,2.86,2.86,0,0,0,.39-1.39V21.61a1,1,0,0,1-.51.24,5.73,5.73,0,0,1-.85.18c-.3.06-.63.09-.93.15l-.76.09a6.19,6.19,0,0,0-1.3.31,2.27,2.27,0,0,0-.93.6,1.46,1.46,0,0,0-.37,1.06,1.52,1.52,0,0,0,.67,1.36A3,3,0,0,0,120.64,26.08Zm-.54,2a5,5,0,0,1-2.15-.45,3.55,3.55,0,0,1-1.51-1.3,3.84,3.84,0,0,1-.57-2.08,3.41,3.41,0,0,1,.42-1.75,2.87,2.87,0,0,1,1.12-1.09,4.9,4.9,0,0,1,1.54-.6,10.17,10.17,0,0,1,1.75-.31l1.84-.21a2.86,2.86,0,0,0,1-.27.67.67,0,0,0,.33-.63v-.06a2.23,2.23,0,0,0-.6-1.66,2.4,2.4,0,0,0-1.78-.58,3,3,0,0,0-1.94.55,2.76,2.76,0,0,0-1,1.2l-2.3-.51a4.21,4.21,0,0,1,1.21-1.84,4.53,4.53,0,0,1,1.81-1,7.52,7.52,0,0,1,2.18-.33,7.76,7.76,0,0,1,1.6.18,4.6,4.6,0,0,1,1.57.64,3.45,3.45,0,0,1,1.21,1.32,4.86,4.86,0,0,1,.48,2.24V27.8H124V26.08h-.09a3.25,3.25,0,0,1-.72.93,3.8,3.8,0,0,1-1.21.76A6.31,6.31,0,0,1,120.1,28Z"/><path class="f018e7b0-a923-4659-a80b-8c607043f4b1" d="M132,11.05h-2.45V27.77H132Z"/><path class="f018e7b0-a923-4659-a80b-8c607043f4b1" d="M19.19,6.7A12.32,12.32,0,1,0,31.51,19,12.33,12.33,0,0,0,19.19,6.7Zm0,26.08A13.77,13.77,0,1,1,33,19,13.78,13.78,0,0,1,19.19,32.78Z"/><path class="f018e7b0-a923-4659-a80b-8c607043f4b1" d="M32.24,18.26H6.13v1.48H32.24Z"/><path class="f018e7b0-a923-4659-a80b-8c607043f4b1" d="M19.19,13.52c-6.29,0-8.53-1.39-10-2.32l-.24-.15.79-1.27.24.15c1.33.85,3.35,2.11,9.22,2.11,5.52,0,7.4-1.08,8.88-2,.18-.12.39-.21.57-.33l.73,1.3-.55.3C27.16,12.31,25.11,13.52,19.19,13.52Z"/><path class="f018e7b0-a923-4659-a80b-8c607043f4b1" d="M28.76,28l-.27-.18c-1.39-.88-3.53-2.2-9.36-2.2-5.53,0-7.47,1.11-9,2-.21.12-.39.21-.57.33l-.73-1.3.55-.3c1.63-.94,3.83-2.23,9.76-2.23,6.25,0,8.67,1.54,10.15,2.44l.27.15Z"/><path class="f018e7b0-a923-4659-a80b-8c607043f4b1" d="M19.31,6.7c-2.81,0-4.78,6.49-4.78,12.32s2,12.31,4.78,12.31S24.08,24.84,24.08,19,22.12,6.7,19.31,6.7Zm0,26.08c-3.51,0-6.26-6-6.26-13.76S15.8,5.25,19.31,5.25s6.25,6,6.25,13.77S22.81,32.78,19.31,32.78Z"/><path class="b96e193a-88a3-4e4a-a136-1c56f101b2ba" d="M31.75,0V1.48h5.11v5.1h1.48V0Z"/><path class="b96e193a-88a3-4e4a-a136-1c56f101b2ba" d="M0,31.42V38H6.59V36.52H1.48v-5.1Z"/></svg>