<svg width="28" height="28" viewBox="0 0 28 28" fill="none" xmlns="http://www.w3.org/2000/svg">
<circle cx="14" cy="14" r="14" fill="#0E76A8"/>
<g clip-path="url(#clip0)">
<rect x="3.00732" y="2.99927" width="22" height="22" rx="11" fill="white"/>
<path d="M20.424 2.99927H7.59066C5.05974 2.99927 3.00732 5.05168 3.00732 7.5826V20.4159C3.00732 22.9469 5.05974 24.9993 7.59066 24.9993H20.424C22.9558 24.9993 25.0073 22.9469 25.0073 20.4159V7.5826C25.0073 5.05168 22.9558 2.99927 20.424 2.99927ZM10.3407 20.4159H7.59066V10.3326H10.3407V20.4159ZM8.96566 9.17027C8.08016 9.17027 7.36149 8.4461 7.36149 7.55327C7.36149 6.66043 8.08016 5.93627 8.96566 5.93627C9.85116 5.93627 10.5698 6.66043 10.5698 7.55327C10.5698 8.4461 9.85207 9.17027 8.96566 9.17027ZM21.3407 20.4159H18.5907V15.2789C18.5907 12.1916 14.924 12.4254 14.924 15.2789V20.4159H12.174V10.3326H14.924V11.9505C16.2037 9.58002 21.3407 9.40493 21.3407 14.2202V20.4159Z" fill="#0E76A8"/>
</g>
<defs>
<clipPath id="clip0">
<rect width="18" height="18" fill="white" transform="translate(5.00391 4.99939)"/>
</clipPath>
</defs>
</svg>
