<svg width="28" height="28" viewBox="0 0 28 28" fill="none" xmlns="http://www.w3.org/2000/svg">
<circle cx="14" cy="14" r="14" fill="#55ACEE"/>
<path d="M22.9998 9.65766C22.3743 9.93876 21.7021 10.1287 20.9966 10.2142C21.7167 9.77675 22.2697 9.08412 22.5301 8.25884C21.8562 8.66383 21.1098 8.95797 20.3153 9.11651C19.6791 8.42961 18.7727 8.00037 17.7695 8.00037C15.8433 8.00037 14.2817 9.5828 14.2817 11.5346C14.2817 11.8116 14.3126 12.0814 14.372 12.34C11.4733 12.1927 8.90342 10.7856 7.18321 8.64732C6.88299 9.16931 6.711 9.77644 6.711 10.4241C6.711 11.6503 7.32679 12.7321 8.26263 13.3659C7.69086 13.3475 7.15311 13.1886 6.68283 12.9239C6.68258 12.9386 6.68258 12.9534 6.68258 12.9683C6.68258 14.6807 7.88481 16.1092 9.48034 16.4338C9.18765 16.5146 8.87954 16.5578 8.56141 16.5578C8.33669 16.5578 8.11818 16.5357 7.90527 16.4944C8.34906 17.8986 9.63711 18.9204 11.1633 18.9489C9.96966 19.8968 8.46578 20.4619 6.83175 20.4619C6.55026 20.4619 6.27261 20.4452 5.99976 20.4125C7.54324 21.4153 9.37656 22.0004 11.3462 22.0004C17.7614 22.0004 21.2695 16.6149 21.2695 11.9444C21.2695 11.7912 21.2661 11.6388 21.2594 11.4872C21.9408 10.9889 22.5321 10.3664 22.9998 9.65766Z" fill="white"/>
</svg>
